<svg width="49" height="49" viewBox="0 0 49 49" fill="none" xmlns="http://www.w3.org/2000/svg">
<g filter="url(#filter0_d_403_290)">
<circle cx="24.5" cy="20.5" r="20.5" fill="white"/>
<path d="M15.2501 24.7009C14.5326 25.1151 14.2868 26.0325 14.701 26.75C15.1152 27.4674 16.0326 27.7132 16.7501 27.299L15.2501 24.7009ZM34.7694 16.3882C34.9839 15.588 34.509 14.7655 33.7088 14.5511L20.6688 11.057C19.8686 10.8426 19.0461 11.3175 18.8317 12.1177C18.6173 12.9179 19.0921 13.7404 19.8923 13.9548L31.4834 17.0606L28.3776 28.6517C28.1632 29.4519 28.6381 30.2744 29.4383 30.4888C30.2385 30.7033 31.061 30.2284 31.2754 29.4282L34.7694 16.3882ZM16.7501 27.299L34.0706 17.299L32.5706 14.7009L15.2501 24.7009L16.7501 27.299Z" fill="black"/>
</g>
<defs>
<filter id="filter0_d_403_290" x="0" y="0" width="49" height="49" filterUnits="userSpaceOnUse" color-interpolation-filters="sRGB">
<feFlood flood-opacity="0" result="BackgroundImageFix"/>
<feColorMatrix in="SourceAlpha" type="matrix" values="0 0 0 0 0 0 0 0 0 0 0 0 0 0 0 0 0 0 127 0" result="hardAlpha"/>
<feOffset dy="4"/>
<feGaussianBlur stdDeviation="2"/>
<feComposite in2="hardAlpha" operator="out"/>
<feColorMatrix type="matrix" values="0 0 0 0 0 0 0 0 0 0 0 0 0 0 0 0 0 0 0.25 0"/>
<feBlend mode="normal" in2="BackgroundImageFix" result="effect1_dropShadow_403_290"/>
<feBlend mode="normal" in="SourceGraphic" in2="effect1_dropShadow_403_290" result="shape"/>
</filter>
</defs>
</svg>
